<svg id="Capa_1" data-name="Capa 1" xmlns="http://www.w3.org/2000/svg" viewBox="0 0 587 586"><defs><style>.cls-1{fill:#151515;}.cls-2{fill:#f96606;}</style></defs><path class="cls-1" d="M1164.65,800.4h-587v-586h587ZM865.41,724.8c120.9.22,224-101.08,217.21-230.19-3.09-58.73-26.86-108.74-70.42-148.24-46.31-42-101.38-60.95-163.89-56-54.17,4.33-100.82,26.2-138.48,65.27-45.91,47.65-66.44,105.25-61.17,171.25C657.21,634,747.92,725.23,865.41,724.8Z" transform="translate(-577.65 -214.4)"/><path class="cls-2" d="M865.41,724.8c-117.49.43-208.2-90.85-216.75-197.87-5.27-66,15.26-123.6,61.17-171.25,37.66-39.07,84.31-60.94,138.48-65.27,62.51-5,117.58,14,163.89,56,43.56,39.5,67.33,89.51,70.42,148.24C1089.41,623.72,986.31,725,865.41,724.8ZM1015,567c6.84,12.69,17,21.24,30,26.47,2.68,1.08,4.64.18,6-2.56,12.23-24,19.94-49.38,21.57-76.24,1.48-24.28-.77-48.23-8.52-71.64-15.14-45.78-43.76-80.57-84.7-105.35-25.5-15.44-53.29-24.34-83-27.64a218.35,218.35,0,0,0-163.12,48.24c-27.44,22.51-48.2,50.11-61.44,83a189.49,189.49,0,0,0-13.49,87.48c1.72,20.83,6.23,40.9,14.7,59.86,20.31,45.48,53.64,78.3,98.89,98.93a198.4,198.4,0,0,0,65.22,17.16,226.87,226.87,0,0,0,55.61-1.41A218,218,0,0,0,1044.5,602.24a28.24,28.24,0,0,0,1.84-4.94c-15.55-4-28-11.53-37.59-23.82-.87-1.12-3.67-1.76-5.1-1.26-12.81,4.46-25.75,6.61-39.4,4.67-22.48-3.2-41-12.77-53-32.58-4.09-6.8-6.41-14.66-9.62-22.23h-6.42c2.3,15-1.21,24.81-11.28,30.35-12,6.59-26.2,8.65-40.07-4.81a6.37,6.37,0,0,0-1.62.88c-7.31,7.13-16.22,9.51-26.07,8.28-8.75-1.09-15.68-5.37-19.32-13.71-3.2-7.36-2.17-14.63,2-21.34.78-1.28,3-1.65,4.61-2.44a42.42,42.42,0,0,1,.61,5.6c0,.89-.89,1.74-1.29,2.65a19.9,19.9,0,0,0,3.76,21.72c4.7,5,13,6.68,19.75,4.14s11.72-10,11.93-18c.27-10.35-5.45-17.37-12.83-23.48q-7.08-5.88-14.3-11.58c-14.94-11.86-9.19-29.55,4-36.93,9.31-5.21,19.59-4.67,25.83,1.56s4.93,16.23-1,18.77c-3.46-5.34-6.2-11-10.24-15.42-3.88-4.26-9.76-4.24-14.21-1.59-4.95,3-7.77,7.81-5.92,13.4a28.45,28.45,0,0,0,7.54,11.28c5.43,5.09,11.75,9.21,17.55,13.91,11.37,9.2,18.29,20.09,12.95,35.46A4.69,4.69,0,0,0,848,544c6.26,12.56,25.33,13.84,33.23,2.26,5.77-8.45,5.24-19.34-2.43-27.95-5-5.66-11.19-10.32-16.89-15.36-6.72-6-13.14-12.18-11.44-22.28,2.5-15,19.58-24.81,33.78-19.49,5.09,1.9,8.52,5.63,9,11.45.48,5.43-1.13,9.68-6,12.13-2.26-5-3.93-10-6.69-14.3-3.22-5-10.4-6.74-15.49-4.61-5.87,2.47-9.45,7.86-7.59,13.94a27.87,27.87,0,0,0,7.44,11.4c8.51,8.1,17.44,15.79,26.55,23.21,2.67,2.18,6.52,2.91,10.84,4.72-.81-12.67.16-23.46,4.37-33.81,4.13-10.18,9.43-19.55,19.85-24.26,3.54-1.6,8.69-2.24,12-.82,2.4,1,4.29,6.21,4.26,9.53-.15,18.76-8.42,33.78-23.11,45.1-4,3.06-4.3,6.06-3.12,10.2,5.95,20.92,19.84,34.27,39.84,41.68C970.07,571.83,984,572,998,568.43c2.59-.66,6.63-.89,4.21-6.06a91.7,91.7,0,0,1-8.31-38.43q-.28-27.42-1.06-54.83c-.06-2.08-1.71-5.68-3-5.82a10.41,10.41,0,0,0-7.35,2.44c-2.11,1.89-3.49,4.84-4.56,7.57-9.12,23.31-12,47.63-11.18,72.47.12,3.47-.76,4.91-4.14,5.19-6,.51-8.58-1.9-8.59-8.54q-.06-41.53,0-83.13c9.59-1.14,11.07.12,10.88,10.08-.08,4.49-.54,9-.59,13.46-.09,9.51,0,19,0,29a11.61,11.61,0,0,0,.68-1.66c2.35-10.44,3.88-21.15,7.27-31.24,2.64-7.88,4.15-17.82,15.52-19.12.39-.05.69-.64,1.1-.84,1.46-.71,2.93-1.91,4.43-2,7.2-.19,13,4.82,13.37,13.14.56,13.57.48,27.21-.25,40.78-.84,15.67-1.1,31.15,4.17,46.21,1.6,4.6,2.61,5,6.65,2.2,14.71-10.12,23.47-24.41,28.59-41.17,4.47-14.65,4.42-29.73,4-44.83,0-1.78.18-3.57.28-5.36l1.49.35C1055.75,507.09,1050.35,542.41,1015,567ZM914.12,514.4c3-1.67,4.62-2.19,5.77-3.22,12.59-11.3,19.5-25.29,19-42.38-.07-2.42-2-6-4-6.87-3.11-1.33-6.43.17-8.66,3.51a69,69,0,0,0-10.84,29C914.52,500.58,914.57,506.81,914.12,514.4Z" transform="translate(-577.65 -214.4)"/><path class="cls-1" d="M1015,567c35.36-24.59,40.76-59.91,36.65-98.65l-1.49-.35c-.1,1.79-.33,3.58-.28,5.36.38,15.1.43,30.18-4,44.83-5.12,16.76-13.88,31-28.59,41.17-4,2.78-5,2.4-6.65-2.2-5.27-15.06-5-30.54-4.17-46.21.73-13.57.81-27.21.25-40.78-.33-8.32-6.17-13.33-13.37-13.14-1.5.05-3,1.25-4.43,2-.41.2-.71.79-1.1.84-11.37,1.3-12.88,11.24-15.52,19.12-3.39,10.09-4.92,20.8-7.27,31.24a11.61,11.61,0,0,1-.68,1.66c0-10-.06-19.51,0-29,0-4.49.51-9,.59-13.46.19-10-1.29-11.22-10.88-10.08q0,41.61,0,83.13c0,6.64,2.63,9.05,8.59,8.54,3.38-.28,4.26-1.72,4.14-5.19-.84-24.84,2.06-49.16,11.18-72.47,1.07-2.73,2.45-5.68,4.56-7.57a10.41,10.41,0,0,1,7.35-2.44c1.24.14,2.89,3.74,3,5.82q.81,27.4,1.06,54.83a91.7,91.7,0,0,0,8.31,38.43c2.42,5.17-1.62,5.4-4.21,6.06-14,3.59-27.92,3.4-41.55-1.66-20-7.41-33.89-20.76-39.84-41.68-1.18-4.14-.85-7.14,3.12-10.2,14.69-11.32,23-26.34,23.11-45.1,0-3.32-1.86-8.5-4.26-9.53-3.35-1.42-8.5-.78-12,.82-10.42,4.71-15.72,14.08-19.85,24.26-4.21,10.35-5.18,21.14-4.37,33.81-4.32-1.81-8.17-2.54-10.84-4.72-9.11-7.42-18-15.11-26.55-23.21a27.87,27.87,0,0,1-7.44-11.4c-1.86-6.08,1.72-11.47,7.59-13.94,5.09-2.13,12.27-.43,15.49,4.61,2.76,4.33,4.43,9.35,6.69,14.3,4.88-2.45,6.49-6.7,6-12.13-.52-5.82-4-9.55-9-11.45-14.2-5.32-31.28,4.53-33.78,19.49-1.7,10.1,4.72,16.33,11.44,22.28,5.7,5,11.86,9.7,16.89,15.36,7.67,8.61,8.2,19.5,2.43,27.95-7.9,11.58-27,10.3-33.23-2.26a4.69,4.69,0,0,1-.42-3.26c5.34-15.37-1.58-26.26-12.95-35.46-5.8-4.7-12.12-8.82-17.55-13.91a28.45,28.45,0,0,1-7.54-11.28c-1.85-5.59,1-10.44,5.92-13.4,4.45-2.65,10.33-2.67,14.21,1.59,4,4.45,6.78,10.08,10.24,15.42,6-2.54,7.18-12.63,1-18.77s-16.52-6.77-25.83-1.56c-13.17,7.38-18.92,25.07-4,36.93q7.2,5.71,14.3,11.58c7.38,6.11,13.1,13.13,12.83,23.48-.21,8-5.06,15.44-11.93,18s-15,.81-19.75-4.14a19.9,19.9,0,0,1-3.76-21.72c.4-.91,1.28-1.76,1.29-2.65a42.42,42.42,0,0,0-.61-5.6c-1.58.79-3.83,1.16-4.61,2.44-4.13,6.71-5.16,14-2,21.34,3.64,8.34,10.57,12.62,19.32,13.71,9.85,1.23,18.76-1.15,26.07-8.28a6.37,6.37,0,0,1,1.62-.88C857.77,561.08,872,559,884,552.43c10.07-5.54,13.58-15.35,11.28-30.35h6.42c3.21,7.57,5.53,15.43,9.62,22.23,11.94,19.81,30.48,29.38,53,32.58,13.65,1.94,26.59-.21,39.4-4.67,1.43-.5,4.23.14,5.1,1.26,9.54,12.29,22,19.82,37.59,23.82a28.24,28.24,0,0,1-1.84,4.94A218,218,0,0,1,892.75,703.32a226.87,226.87,0,0,1-55.61,1.41,198.4,198.4,0,0,1-65.22-17.16c-45.25-20.63-78.58-53.45-98.89-98.93-8.47-19-13-39-14.7-59.86a189.49,189.49,0,0,1,13.49-87.48c13.24-32.91,34-60.51,61.44-83A218.35,218.35,0,0,1,896.38,310c29.74,3.3,57.53,12.2,83,27.64,40.94,24.78,69.56,59.57,84.7,105.35,7.75,23.41,10,47.36,8.52,71.64-1.63,26.86-9.34,52.24-21.57,76.24-1.39,2.74-3.35,3.64-6,2.56C1032,588.24,1021.83,579.69,1015,567Zm-155.43,5.88c-7.89-2.38-13.12-.4-15.74,5-13.74,28.18-35.1,44.71-67.66,43.87-22-.57-39.69-9.68-52.68-27.33C707.2,572.28,704.32,547.19,709,521c3.5-19.59,12.74-36.07,29.16-48.06,4.23-3.09,7.78-3.44,12.59-.65,10.6,6.15,22.23,8.54,34.38,5.89,7.47-1.62,11.31-5.59,11.15-10.24-.14-4.13-4.65-8.16-11.11-9.95-9.72-2.69-19.4-1.68-29,.59-3.72.88-5.64.23-7.31-3.45-3.94-8.73-4.95-17.87-4.37-27.19.93-14.94,4.55-29.08,16.83-38.93a54.93,54.93,0,0,1,17.59-9.54c5-1.56,10.87-.45,16.35-.39a38.27,38.27,0,0,1,24.17,8.69c11.85,9.54,11.89,25.13.15,34.53-.31.25-.31.89-.87,2.65,2.77-.32,5.81.25,7-1,2.95-3.09,6.33-6.68,7.28-10.61,3.44-14.19-3.6-27.29-17.47-33.38-22.55-9.9-44.34-6.92-64.68,5.81-19.23,12.05-26.94,30.22-24.45,52.65a42.45,42.45,0,0,0,8.66,21.32c2.37,3.11,1.67,4.5-1.67,6.32-5.92,3.23-12,6.51-17.08,10.88-25.11,21.72-36.27,49-29.78,82,4.05,20.65,15.74,37.09,32.93,48.87,30.89,21.15,63.86,25.35,98,8.49C836.33,607,849.93,592.06,859.56,572.88Z" transform="translate(-577.65 -214.4)"/><path class="cls-1" d="M914.12,514.4c.45-7.59.4-13.82,1.27-19.92a69,69,0,0,1,10.84-29c2.23-3.34,5.55-4.84,8.66-3.51,2,.86,3.92,4.45,4,6.87.51,17.09-6.4,31.08-19,42.38C918.74,512.21,917.14,512.73,914.12,514.4Z" transform="translate(-577.65 -214.4)"/><path class="cls-2" d="M859.56,572.88c-9.63,19.18-23.23,34.14-42.06,43.44-34.18,16.86-67.15,12.66-98-8.49-17.19-11.78-28.88-28.22-32.93-48.87-6.49-33.06,4.67-60.3,29.78-82,5.06-4.37,11.16-7.65,17.08-10.88,3.34-1.82,4-3.21,1.67-6.32a42.45,42.45,0,0,1-8.66-21.32c-2.49-22.43,5.22-40.6,24.45-52.65C771.19,373,793,370.06,815.53,380c13.87,6.09,20.91,19.19,17.47,33.38-1,3.93-4.33,7.52-7.28,10.61-1.17,1.23-4.21.66-7,1,.56-1.76.56-2.4.87-2.65,11.74-9.4,11.7-25-.15-34.53a38.27,38.27,0,0,0-24.17-8.69c-5.48-.06-11.34-1.17-16.35.39A54.93,54.93,0,0,0,761.35,389c-12.28,9.85-15.9,24-16.83,38.93-.58,9.32.43,18.46,4.37,27.19,1.67,3.68,3.59,4.33,7.31,3.45,9.57-2.27,19.25-3.28,29-.59,6.46,1.79,11,5.82,11.11,9.95.16,4.65-3.68,8.62-11.15,10.24-12.15,2.65-23.78.26-34.38-5.89-4.81-2.79-8.36-2.44-12.59.65-16.42,12-25.66,28.47-29.16,48.06-4.68,26.21-1.8,51.3,14.48,73.41,13,17.65,30.71,26.76,52.68,27.33,32.56.84,53.92-15.69,67.66-43.87C846.44,572.48,851.67,570.5,859.56,572.88ZM756.45,464.55c7.71,9.33,21.15,10.86,28.81,8.61,2.17-.64,3.84-3,5.74-4.53-1.64-1.89-2.93-4.74-5-5.51C776.27,459.48,766.63,461.23,756.45,464.55Z" transform="translate(-577.65 -214.4)"/><path class="cls-1" d="M756.45,464.55c10.18-3.32,19.82-5.07,29.57-1.43,2.05.77,3.34,3.62,5,5.51-1.9,1.55-3.57,3.89-5.74,4.53C777.6,475.41,764.16,473.88,756.45,464.55Z" transform="translate(-577.65 -214.4)"/></svg>